PathFileType	4	(X/Y/Z)	6_coords_data.trc
DataRate	CameraRate	NumFrames	NumMarkers	Units	OrigDataRate	OrigDataStartFrame	OrigNumFrames
30.0	30.0	5	21	m	30.0	34	55
Frame#	Time	THUMB_TIP	THUMB_IP	THUMB_MCP	THUMB_CMC	INDEX_TIP	INDEX_DIP	INDEX_PIP	INDEX_MCP	MIDDLE_TIP	MIDDLE_DIP	MIDDLE_PIP	MIDDLE_MCP	RING_TIP	RING_DIP	RING_PIP	RING_MCP	PINKY_TIP	PINKY_DIP	PINKY_PIP	PINKY_MCP	WRIST
X1	Y1	Z1	X2	Y2	Z2	X3	Y3	Z3	X4	Y4	Z4	X5	Y5	Z5	X6	Y6	Z6	X7	Y7	Z7	X8	Y8	Z8	X9	Y9	Z9	X10	Y10	Z10	X11	Y11	Z11	X12	Y12	Z12	X13	Y13	Z13	X14	Y14	Z14	X15	Y15	Z15	X16	Y16	Z16	X17	Y17	Z17	X18	Y18	Z18	X19	Y19	Z19	X20	Y20	Z20	X21	Y21	Z21
32	1.0999999999999952	0.48112930163909085	-0.015992492628337796	-0.17231283052298943	0.48464352355141826	-0.023381743883222228	-0.1508407740252268	0.472615910026439	-0.027909660083377696	-0.12249197356069025	0.47236916116888583	-0.029815841776376084	-0.07792521928853607	0.5719941121023739	0.022715947779894385	-0.17126209006018397	0.5577910154845047	0.017579527123814498	-0.1612676301294391	0.5384988697569828	0.010471375105387537	-0.14680052533577032	0.5071455692983352	0.00012180674334816288	-0.11990269867506695	0.5988225810878817	0.03314113112657757	-0.13698105603909094	0.5820598071980418	0.0299615535469423	-0.13090654388310802	0.555443074661842	0.024406810941474677	-0.12041350172730747	0.5170671933824611	0.011963562919362514	-0.1012144070691976	0.60623223331709	0.03220060575424155	-0.10250340056868118	0.5892953630197023	0.027958839319323303	-0.0980145430257123	0.5659543701819187	0.021695520524635636	-0.0920021499894369	0.5282631339682229	0.011100623005276922	-0.08191058453913724	0.6037256763409639	0.014934990008449778	-0.06089477272845012	0.5868101882950303	0.012398919410009368	-0.06023552308863095	0.5659723620762769	0.009878197010444678	-0.05974259706845214	0.5303722683902952	0.004208014676635563	-0.06091127702921162	0.462283081001861	-0.023011742144276925	-0.051989820119430985
33	1.1333333333333284	0.4854071046480629	-0.01404544057238466	-0.17129117647930595	0.4881753298924789	-0.02159280091880511	-0.1497650462930078	0.47488585505194025	-0.027113995931056012	-0.12216565745739424	0.47305613919647505	-0.02972447622405827	-0.07767152826568952	0.5735084283866184	0.0215672332233503	-0.16922816576181432	0.5586824785944275	0.017230302819093102	-0.1597739472627491	0.538574894900376	0.01101676448033051	-0.14602306175310154	0.5062226661164178	0.001096942873685669	-0.1201664083346334	0.5989033228035977	0.029616355363713653	-0.13699819210000672	0.5818961274946499	0.0278763695576415	-0.13102092206110333	0.554901308880669	0.02420421910296433	-0.12066695523497872	0.516141487863991	0.013079833243033079	-0.10142969360567067	0.6061604691159559	0.029235551032527174	-0.10359978383999119	0.589002767946384	0.026339190035453597	-0.09888550939419366	0.5653622591948884	0.02165925173846972	-0.09260820881935389	0.5273881630525183	0.01256574786267628	-0.08212026128749722	0.6036061215496314	0.012094344872490836	-0.063908080485724	0.5865938972166186	0.010859318560561215	-0.06247318214365033	0.565674704545567	0.009679523175905702	-0.06112875667462403	0.529859555715985	0.005419365097377726	-0.06103068292255509	0.462283081001861	-0.023011742144276925	-0.051989820119430985
34	1.1666666666666616	0.4899607593613622	-0.012835195727501358	-0.17015184128156385	0.491841066383943	-0.02033287124150507	-0.14851277227692447	0.4772564870219903	-0.026623294014062382	-0.12174449578818891	0.4737587696307437	-0.029674706391674133	-0.07737846311055668	0.5748280550694417	0.02019285656355496	-0.16714643706914592	0.559436221511906	0.016695652525101856	-0.15826606412368105	0.5385734642455097	0.011434619919779676	-0.14526311337513306	0.5052788807802684	0.0019738657151645578	-0.12045180676391365	0.5986839989448228	0.025975554554178326	-0.13704477104021973	0.5815483791827912	0.025670682710283055	-0.13119006451214588	0.5543080757144366	0.023853142305559016	-0.12098849777810194	0.5152149097641874	0.01406976627361467	-0.10169710460902659	0.6057825594234029	0.026206838457165205	-0.10479007410914443	0.5885130730803187	0.02465408957756332	-0.09985511591652252	0.5646880487902022	0.021539033899516835	-0.09330953536946393	0.5265162301539887	0.013895037655322073	-0.08239154940946325	0.6031289539292137	0.009299502719252617	-0.06692582113415901	0.5861537943921236	0.009361844518016915	-0.06472580472729689	0.5652710943879534	0.009472667777444821	-0.0625549574869319	0.5293467082959269	0.006550379993269795	-0.061219978454332524	0.4622830810018608	-0.023011742144276925	-0.051989820119430985
35	1.1999999999999948	0.4948506495469991	-0.012580334379526326	-0.16887907858764534	0.4956595099427604	-0.019813527810251474	-0.14708397230999937	0.4797066615567418	-0.02656855420746307	-0.12122481055356032	0.4745024930415622	-0.029670968095779515	-0.07702999572046931	0.575843335190189	0.018736762171630672	-0.16516536176892496	0.5599696477504699	0.01608588592674709	-0.15685880398603963	0.5384480910416564	0.011790285946514878	-0.14459584143047616	0.5043461549821122	0.002721635362355368	-0.12075357585915941	0.5981571473451668	0.02255559478896474	-0.13714402322621766	0.5810037067606818	0.023565173267463657	-0.1314221155539207	0.5536449452882156	0.02345130716019006	-0.12137747742194613	0.5142899788300895	0.014940803064139585	-0.10201499162825539	0.6050917999624484	0.023425386468070908	-0.1060720944236882	0.5878170293469273	0.023115767737472592	-0.1009255969328903	0.5639219278412481	0.02144017857854652	-0.09411409900631196	0.52564957500881	0.015097806615961717	-0.08272453533786533	0.6023338682224487	0.006847006290300661	-0.06986935293259722	0.5855153443661087	0.008115444687661233	-0.06694902429940802	0.5647660566806341	0.009394714405029259	-0.06400920312531705	0.5288309030297402	0.007613144439930886	-0.0614844869935291	0.4622830810018609	-0.023011742144276925	-0.051989820119430985
36	1.233333333333328	0.5000028865799403	-0.01324936757284323	-0.1674382273460903	0.4995528888449604	-0.02000601819232284	-0.1454804229375252	0.48215876050558726	-0.026924446796301016	-0.12061278040822487	0.47527174038993014	-0.02971481559729139	-0.07662786485890277	0.5765450375961493	0.017322624284562105	-0.1634117252868259	0.5602865121766345	0.015473020569966245	-0.15565032610356397	0.5382385680188737	0.012081570523437724	-0.14405739472284032	0.503494064156484	0.0033171373524797376	-0.12104348031115889	0.5974383203870809	0.01956210692632343	-0.13731591857888814	0.5803462348621455	0.021688776479329208	-0.13171789312158513	0.5529715256755585	0.02302602601036574	-0.12180595029277869	0.5134322786458277	0.0156535749986213	-0.10235234313622898	0.6042029375423678	0.0210481368799178	-0.10739288494534899	0.5870037212557135	0.02182005888245131	-0.10204582074647395	0.5631299160869527	0.021384750558926302	-0.09497249674516303	0.524844020496713	0.016117763791987816	-0.08309100343623266	0.6013619245976425	0.004870178045936591	-0.0725742649124595	0.5847806377858494	0.007180708316938511	-0.06900742071459498	0.564224413915838	0.009448662195857493	-0.06538663842217884	0.5283467722391828	0.008547746522205801	-0.06179962996519023	0.4622830810018608	-0.023011742144276925	-0.051989820119430985
